<svg id="레이어_1" data-name="레이어 1" xmlns="http://www.w3.org/2000/svg" viewBox="0 0 463.04 131.23"><defs><style>.cls-1{fill:none;stroke:#000;stroke-miterlimit:10;stroke-width:7px;}</style></defs><title>logo-noir</title><path d="M147.22,69.4h8.58l10.53,27.77a89.69,89.69,0,0,1,4.09,13.29h0.36q0.4-1.64,1.82-6.15t2.4-7.22L184.9,69.4h8.62l-21,55.54q-3.07,8.09-7.29,11.6a15.79,15.79,0,0,1-10.44,3.51,29.49,29.49,0,0,1-6.62-.76v-6.35a23.13,23.13,0,0,0,5.33.53,10.13,10.13,0,0,0,6.49-2.11,14.87,14.87,0,0,0,4.35-6.51l2.53-6.49Z" transform="translate(-5.79 -8.83)"/><path d="M224,118.19l-1.56-6.93H222.1a20.49,20.49,0,0,1-7.27,6.2,22.4,22.4,0,0,1-9.13,1.62q-7.2,0-11.29-3.78t-4.09-10.66q0-14.84,23.42-15.55l8.26-.31V85.89q0-5.55-2.4-8.2T211.92,75a22.83,22.83,0,0,0-7.31,1.16,60,60,0,0,0-6.46,2.58l-2.44-6a36.21,36.21,0,0,1,8-3.07,34.78,34.78,0,0,1,8.62-1.11q8.84,0,13.15,3.91T229.83,85v33.24H224Zm-16.48-5.55q6.71,0,10.55-3.62t3.84-10.29v-4.4l-7.2.31q-8.4.31-12.24,2.67t-3.84,7.42a7.38,7.38,0,0,0,2.33,5.87A9.62,9.62,0,0,0,207.52,112.64Z" transform="translate(-5.79 -8.83)"/><path d="M245.47,93.09l2.71-3.47,3.11-3.73,15.6-16.48h9.33L256.49,90.24l21.11,27.95H268L251,95.44l-5.55,4.84v17.91h-7.91V49.05h7.91V85.18l-0.36,7.91h0.36Z" transform="translate(-5.79 -8.83)"/><path d="M310.57,104.73a12.38,12.38,0,0,1-5.11,10.6q-5.11,3.76-14.35,3.75-9.64,0-15.33-3.07v-7.29a35.41,35.41,0,0,0,15.51,3.91q6,0,8.8-2a6.12,6.12,0,0,0,2.75-5.24,6,6,0,0,0-2.64-4.89q-2.64-2-9.4-4.58a53.42,53.42,0,0,1-9.69-4.55A12.64,12.64,0,0,1,277,87.18a11.63,11.63,0,0,1-1.31-5.73A11,11,0,0,1,280.58,72q4.89-3.47,13.42-3.47a37.18,37.18,0,0,1,15.55,3.29l-2.71,6.35A35.09,35.09,0,0,0,293.47,75q-5,0-7.55,1.58A4.86,4.86,0,0,0,283.34,81a5.41,5.41,0,0,0,2.22,4.42q2.22,1.76,10.35,4.87a45.35,45.35,0,0,1,9,4.22,13.26,13.26,0,0,1,4.29,4.4A11.77,11.77,0,0,1,310.57,104.73Z" transform="translate(-5.79 -8.83)"/><path d="M357.41,93.71q0,12-6,18.66t-16.71,6.71A22.22,22.22,0,0,1,322.93,116a20.24,20.24,0,0,1-7.86-8.86,30.84,30.84,0,0,1-2.75-13.42q0-11.91,6-18.55T335,68.51q10.31,0,16.37,6.78T357.41,93.71Zm-36.84,0q0,9.2,3.62,14t10.69,4.78q7,0,10.62-4.78t3.64-14q0-9.2-3.67-13.84t-10.73-4.64Q320.58,75.22,320.58,93.71Z" transform="translate(-5.79 -8.83)"/><path d="M370.61,93.09l2.71-3.47,3.11-3.73L392,69.4h9.33L381.63,90.24l21.11,27.95H393.1L376.17,95.44l-5.55,4.84v17.91H362.7V49.05h7.91V85.18l-0.36,7.91h0.36Z" transform="translate(-5.79 -8.83)"/><path d="M402.74,113.26a6.45,6.45,0,0,1,1.44-4.51,5.29,5.29,0,0,1,4.11-1.58,5.57,5.57,0,0,1,4.22,1.58,6.27,6.27,0,0,1,1.51,4.51,6.53,6.53,0,0,1-1.51,4.55,5.41,5.41,0,0,1-4.22,1.67,5.19,5.19,0,0,1-4.09-1.64A6.64,6.64,0,0,1,402.74,113.26Z" transform="translate(-5.79 -8.83)"/><path d="M415.23,140.05a19.4,19.4,0,0,1-7-1.11V132.5a21.64,21.64,0,0,0,6,.89q3.47,0,5.09-1.89t1.62-5.75V69.4h8v56.08q0,7.29-3.49,10.93T415.23,140.05Zm5.11-83.85a4.45,4.45,0,0,1,4.71-5.07,4.5,4.5,0,0,1,4.67,5.07,4.91,4.91,0,0,1-1.4,3.87,5,5,0,0,1-6.62,0A5,5,0,0,1,420.34,56.21Z" transform="translate(-5.79 -8.83)"/><path d="M468.83,104.73a12.38,12.38,0,0,1-5.11,10.6q-5.11,3.76-14.35,3.75-9.64,0-15.33-3.07v-7.29a35.41,35.41,0,0,0,15.51,3.91q6,0,8.8-2a6.12,6.12,0,0,0,2.75-5.24,6,6,0,0,0-2.64-4.89q-2.64-2-9.4-4.58a53.42,53.42,0,0,1-9.69-4.55,12.64,12.64,0,0,1-4.11-4.24,11.63,11.63,0,0,1-1.31-5.73A11,11,0,0,1,438.83,72q4.89-3.47,13.42-3.47a37.18,37.18,0,0,1,15.55,3.29l-2.71,6.35A35.09,35.09,0,0,0,451.72,75q-5,0-7.55,1.58A4.86,4.86,0,0,0,441.59,81a5.41,5.41,0,0,0,2.22,4.42q2.22,1.76,10.35,4.87a45.35,45.35,0,0,1,9,4.22,13.26,13.26,0,0,1,4.29,4.4A11.77,11.77,0,0,1,468.83,104.73Z" transform="translate(-5.79 -8.83)"/><rect class="cls-1" x="44.95" y="27.54" width="18.18" height="43.3" rx="9.09" ry="9.09"/><path class="cls-1" d="M105.13,74.79l28.1-54.25c2.24-5.77,6.1-9.54,10.64-7.77l0.86,0.34c4.54,1.76,4.43,7.72,2.19,13.49L123.74,92l-0.14,1.28c0.85,9.4-.86,16-2.68,20.49-1.72,4.18-4.23,8.1-6.15,15.45a60.23,60.23,0,0,0-1.58,8.51" transform="translate(-5.79 -8.83)"/><rect class="cls-1" x="63.12" y="33.06" width="18.18" height="43.3" rx="9.09" ry="9.09"/><rect class="cls-1" x="81.5" y="36.34" width="18.18" height="48.23" rx="9.09" ry="9.09"/><path class="cls-1" d="M65.29,88.08L41.68,67.8S35,60,22.44,60.73c0,0-8.11-1-12.27,8l21.22,15.5,13.1,15.5s6.68,17.26,6.25,29.64v8.32" transform="translate(-5.79 -8.83)"/></svg>